<svg width="63" height="71" viewBox="0 0 63 71" fill="none" xmlns="http://www.w3.org/2000/svg">
<path d="M11.72 0C14.8283 0 17.8094 1.23478 20.0073 3.43271C22.2052 5.63064 23.44 8.61166 23.44 11.72V58.6C23.44 61.7083 22.2052 64.6894 20.0073 66.8873C17.8094 69.0852 14.8283 70.32 11.72 70.32C8.61166 70.32 5.63063 69.0852 3.43271 66.8873C1.23478 64.6894 6.55033e-08 61.7083 0 58.6V11.72C0 8.61166 1.23478 5.63064 3.43271 3.43271C5.63063 1.23478 8.61166 0 11.72 0V0ZM50.7867 0C53.895 0 56.876 1.23478 59.074 3.43271C61.2719 5.63064 62.5067 8.61166 62.5067 11.72V58.6C62.5067 61.7083 61.2719 64.6894 59.074 66.8873C56.876 69.0852 53.895 70.32 50.7867 70.32C47.6783 70.32 44.6973 69.0852 42.4994 66.8873C40.3014 64.6894 39.0667 61.7083 39.0667 58.6V11.72C39.0667 8.61166 40.3014 5.63064 42.4994 3.43271C44.6973 1.23478 47.6783 0 50.7867 0Z" fill="white"/>
</svg>
